<svg class="icon credit-card js-credit-card"
     viewBox="0 0 78 48"
     width="78"
     height="48"
     data-focussed="none"
     aria-hidden="true">
    <g id="credit-card" class="credit-cards">
        <title>Credit card</title>
        <desc>human-readable description of
            the message we trying to
            accomplish
        </desc>
        <path class="credit-card__outer"
              d="M78,42c0,3.3-2.7,6-6,6H6c-3.3,0-6-2.7-6-6V6c0-3.3,2.7-6,6-6h66c3.3,0,6,2.7,6,6V42z"/>
        <path class="credit-card__inner"
              d="M74,40c0,2.2-1.8,4-4,4H8c-2.2,0-4-1.8-4-4V8c0-2.2,1.8-4,4-4h62c2.2,0,4,1.8,4,4V40z"/>
        <rect class="credit-card__magnetic-strip" x="4" y="10" width="70"
              height="10"/>
        <rect class="credit-card__number"
              x="10" y="26" width="36"
              height="4"/>
        <rect class="credit-card__name"
              x="10" y="34" width="24"
              height="4"/>
        <rect class="credit-card__cvc"
              x="58" y="26" width="12"
              height="4"/>
        <rect class="credit-card__date" x="46" y="34" width="12" height="4"/>
    </g>
</svg>