<svg xmlns="http://www.w3.org/2000/svg" width="124" height="33" viewBox="0 0 124 33"><path fill="#253B80" d="M46.2 6.7h-6.8c-.5 0-1 .4-1 1L35.7 25c0 .4.2.7.5.7h3.3c.5 0 1-.3 1-.8L41 20c0-.4.5-.8 1-.8h2c4.6 0 7.2-2.2 8-6.5.2-2 0-3.5-1-4.5s-2.7-1.8-5-1.8zm.8 6.5c-.4 2.4-2.2 2.4-4 2.4h-1l.6-4.6c0-.3.3-.5.6-.5h.5c1.2 0 2.4 0 3 .7.3.5.4 1 .3 2zM66.7 13h-3.3c-.3 0-.5.3-.6.6v1l-.4-.5c-.7-1-2.2-1.2-3.8-1.2-3.6 0-6.7 2.7-7.3 6.6-.4 2 0 3.7 1.2 5 1 1.2 2.4 1.7 4 1.7 3 0 4.6-1.8 4.6-1.8v1c0 .2.2.5.6.5h3c.4 0 .8-.3.8-.8l1.8-11.3c0-.3-.2-.6-.5-.6zM62 19.5c-.2 2-1.7 3.2-3.6 3.2-1 0-1.7-.3-2.2-1-.5-.5-.7-1.3-.5-2.2.3-2 1.8-3.2 3.7-3.2 1 0 1.6.3 2 1 .6.5.8 1.3.7 2.2zM84 13H81c-.3 0-.6.2-.8.5l-4.5 6.7-2-6.4c0-.4-.4-.7-1-.7h-3c-.5 0-.8.5-.6.8l3.5 10.7-3.4 4.8c-.2.4 0 1 .5 1h3.3c.3 0 .6-.3.8-.5l11-15.8c.2-.4 0-1-.5-1z"/><path fill="#179BD7" d="M95 6.7h-6.8c-.5 0-1 .4-1 1L84.4 25c0 .4.3.7.6.7h3.5c.3 0 .6-.2.7-.5l.8-5c0-.4.4-.8 1-.8h2c4.6 0 7.2-2.2 7.8-6.5.4-2 0-3.5-.8-4.5-1-1-2.7-1.8-5-1.8zm.8 6.5c-.4 2.4-2.3 2.4-4 2.4h-1l.6-4.6c0-.3.3-.5.6-.5h.4c1.3 0 2.4 0 3 .7.4.5.5 1 .4 2zM115.4 13h-3.2c-.3 0-.6.3-.6.6v1l-.4-.5c-.7-1-2.3-1.2-3.8-1.2-3.7 0-6.8 2.7-7.4 6.6-.3 2 .2 3.7 1.3 5 1 1.2 2.4 1.7 4 1.7 3 0 4.6-1.8 4.6-1.8l-.2 1c0 .2.2.5.5.5h3c.5 0 1-.3 1-.8l1.7-11.3c0-.3-.2-.6-.6-.6zm-4.5 6.4c-.4 2-2 3.2-3.8 3.2-1 0-1.7-.3-2.2-1-.5-.5-.7-1.3-.5-2.2.3-2 1.8-3.2 3.6-3.2 1 0 1.8.3 2.3 1 .5.5.7 1.3.6 2.2zM119.3 7.2l-2.8 18c0 .2.2.5.5.5h3c.3 0 .7-.3.8-.8l2.8-17.6c0-.3-.2-.7-.6-.7h-3c-.4 0-.7.3-.7.5z"/><path fill="#253B80" d="M7.3 29.2l.5-3.4H1L5 1.3V1h9.6c3 0 5.3.7 6.4 2 .5.6 1 1.2 1 2 .2.6.2 1.5 0 2.5v.8l.6.3 1 .8c.5.5.8 1 1 2 0 .7 0 1.7-.2 2.7-.3 1.4-.7 2.4-1.2 3.3-.5.8-1 1.5-1.8 2-.7.5-1.5 1-2.5 1-1 .4-2 .5-3.2.5H15c-.4 0-1 .2-1.3.5-.4.3-.7.8-.8 1.3v.3l-1 5.8v.2c-.2 0-.2.2-.2.2H7.3z"/><path fill="#179BD7" d="M23 7.7v.5c-1.3 6.4-5.5 8.6-11 8.6H9.4c-.6 0-1.2.4-1.3 1l-1.4 9-.4 2.6c0 .4.3.8.7.8h4.8c.6 0 1-.4 1-1l.2-.3 1-6V23c0-.6.5-1 1-1h.8c4.8 0 8.5-2 9.6-7.5.4-2.3.2-4.2-1-5.6-.4-.4-.8-.8-1.4-1z"/><path fill="#222D65" d="M21.8 7.2l-.6-.2h-.6c-.8-.2-1.6-.3-2.5-.3h-7.7c-.4.3-.6.6-.7 1L8 17.7v.2c0-.8.7-1.2 1.3-1.2H12c5.5 0 9.7-2.2 11-8.6v-.5l-1-.5h-.2z"/><path fill="#253B80" d="M9.6 7.7c0-.4.3-.7.7-1H18c1 0 1.8 0 2.6.2h.6c.2 0 .4 0 .6.2h.2l1 .5c.4-2.4 0-4-1.2-5.4C20.4.7 17.8 0 14.6 0H5.2C4.6 0 4 .5 4 1L0 26c0 .4.3.8.8.8h5.8L8 17.6l1.6-10z"/></svg>
