<svg xmlns="http://www.w3.org/2000/svg" width="149" height="41"><path fill-rule="evenodd" fill="#32364E" d="M6 0h137c3.3 0 6 2.7 6 6v29c0 3.3-2.7 6-6 6H6c-3.3 0-6-2.7-6-6V6c0-3.3 2.7-6 6-6z"/><path fill-rule="evenodd" fill="#FFF" d="M71.4 26.6H70l1-2.8L69 18h1.6l1.4 4 1.4-4h1.6l-3.4 8.6zm-5.6-2.4c-.5 0-1-.2-1.5-.6v.4h-1.5v-8.4h1.5v3c.5-.4 1-.6 1.5-.6 1.6 0 2.7 1.3 2.7 3 0 2-1 3.2-2.7 3.2zm-.3-5c-.4 0-1 .3-1.2.6v2.6c.3.3.8.5 1.2.5.8 0 1.4-.8 1.4-2 0-1-.7-1.7-1.5-1.7zm-8.8 4.4c-.5.4-1 .6-1.5.6-1.6 0-2.7-1.3-2.7-3 0-2 1-3.2 2.7-3.2.5 0 1 .2 1.5.5v-3h1.5V24h-1.5v-.4zm0-3.8c-.4-.3-.8-.5-1.2-.5-1 0-1.4.7-1.4 1.8 0 1.2.6 2 1.5 2 .4 0 .8-.3 1.2-.6v-2.6zm-9 1.7c0 1 .8 1.5 1.8 1.5.5 0 1-.2 1.7-.5v1.2c-.6.3-1.3.5-2 .5-1.8 0-3-1.3-3-3.2 0-1.7 1.2-3 3-3 1.5 0 2.5 1.2 2.5 3v.5h-4zm1.3-2.3c-.7 0-1.2.5-1.3 1.3h2.6c0-.8-.6-1.3-1.3-1.3zm-5.3 1V24h-1.5v-6h1.5v.7c.4-.4 1-.7 1.5-.7h.5v1.4H45c-.4 0-1 .2-1.3.7zM37 21.4c0 1 .8 1.5 1.8 1.5.5 0 1-.2 1.7-.5v1.2c-.7.3-1.3.5-2 .5-1.8 0-3-1.3-3-3.2 0-1.7 1.2-3 3-3 1.4 0 2.5 1.2 2.5 3v.5h-4zm1.3-2.3c-.7 0-1.3.5-1.3 1.3h2.5c0-.8-.5-1.3-1.2-1.3zM31.7 24l-1.2-4-1.2 4H28l-2-6h1.4l1.2 4.2 1.2-4h1.4l1.2 4 1.2-4H35L33 24h-1.3zm-9.2.2c-1.8 0-3-1.3-3-3 0-2 1.2-3.2 3-3.2s3 1.3 3 3c0 2-1.2 3.2-3 3.2zm0-5c-1 0-1.5.8-1.5 2 0 1 .6 1.7 1.5 1.7.8 0 1.5-.8 1.5-2 0-1-.7-1.7-1.5-1.7zm-6.7 2h-1.3V24H13v-8h2.8c1.7 0 3 1 3 2.5 0 1.6-1.3 2.6-3 2.6zm-.2-4h-1V20h1c1 0 1.5-.7 1.5-1.5s-.5-1.3-1.4-1.3zM136.8 22h-7.2c0 1.6 1.4 2 3 2 1.3 0 2.5-.2 3.5-.7v3c-1 .5-2.2 1-4 1-3.6 0-6-2.3-6-6.8 0-3.8 2-6.8 5.5-6.8s5.4 3 5.4 6.8l-.2 1.4zm-5.3-5.2c-1 0-2 .7-2 2.3h4c0-1.5-1-2.2-2-2.2zM120 27.2c-1.3 0-2-.5-2.6-1v4.3l-3.8.8V14h3.3v1c.6-.6 1.6-1.3 3-1.3 2.6 0 5 2.4 5 6.7 0 4.7-2.4 6.8-5 6.8zM119 17c-.7 0-1.3.3-1.7.8v5.5c.4.4 1 .7 1.8.7 1.5 0 2.4-1.5 2.4-3.5s-1-3.5-2.3-3.5zm-10.6-3h3.7v13h-3.6V14zm0-4.2L112 9v3l-3.6 1V9.7zm-3.8 8.4V27H101V14h3l.3 1c1-1.5 2.6-1.2 3-1v3.4c-.4-.2-1.8-.4-2.7.8zm-7.8 4.2c0 2.2 2.3 1.5 2.8 1.3v3c-.5.3-1.4.5-2.6.5-2.2 0-4-1.6-4-3.8v-12L97 11V14h2.8v3.2h-2.8v5.2zm-4.5.7c0 2.7-2.2 4.2-5.2 4.2-1.2 0-2.6-.2-4-.8V23c1.3.5 2.8 1 4 1 1 0 1.5-.2 1.5-1 0-1.6-5.6-1-5.6-5 0-2.7 2-4.3 5-4.3 1 0 2.3.2 3.5.7V18c-1-.7-2.5-1-3.6-1-1 0-1.4.2-1.4.8 0 1.6 5.7.8 5.7 5.3z"/></svg>
