<svg xmlns="http://www.w3.org/2000/svg" width="533.333" height="533.333" version="1" viewBox="0 0 400 400"><defs/><path d="M75 2.7c-2.1 4.6-5 13.5-5 15.4 0 1.8 7.7 6.2 9.2 5.3.4-.3 1.1.9 1.4 2.6.4 1.7 1.1 3.3 1.6 3.6.5.3 3.9-.3 7.6-1.4 12.4-3.7 13-3.7 16.3-.6 3.6 3.4 3.8 5.3.4 4.6-2.8-.5-7.5 2.1-7.5 4.2 0 1.4 3 2.6 9.1 4 1.7.4 3.5 2 4.8 4.2 3.1 5.2 2.8 5.8-2.8 5-2.7-.4-5.1-.2-5.3.2-.5 1.4-4.8 2.5-4.8 1.2 0-.6-1.1-.5-3.1.5-5.4 2.8-12 3-16.8.5-3.1-1.5-4-2.5-3.3-3.2.8-.8 2.2-.8 5 0 2.2.7 5.1 1.2 6.4 1.2 3.6 0 7.5-3.4 8-7 .4-2.7.2-3-2.3-3-1.5 0-3.4-.6-4.1-1.3-.7-.8-3.5-1.7-6.1-2-2.7-.4-6.1-1.6-7.7-2.7-3.9-2.8-4.9-2.5-6.7 1.7-1.9 4.8-2 4.8-3.8 3.3-1.2-1-1.5-1-1.5.3 0 .9-.5 1.9-1.1 2.3-.8.4-.9-.4-.4-2.7.4-2.5.3-3-.4-1.9-.6.8-1.5 3.8-2.1 6.7-1.3 6.3 0 12.4 3.5 15.9 2.2 2.2 2.3 2.6 1 5.2-1.1 2-1.2 3.7-.6 6 1.1 3.6.1 12.6-1.8 16-1.2 2.2-1.1 2.3.8 1.2 1.2-.6 2.1-1.5 2.1-2 0-2.6 2-.6 2.6 2.5.6 3.5.7 3.6 2.6 1.8 3.1-2.7 6-9.1 5.6-12.3-.2-2.4.5-3.4 3.9-5.9 2.2-1.6 6.8-4.3 10.1-6 3.3-1.7 7.3-4.2 8.7-5.6 3.4-3.1 8.7-4.1 14-2.7 3.7 1 22.4.6 23.5-.4.2-.3-.1-1.3-.8-2.2-.7-.9-1.9-3.1-2.7-4.8-.7-1.7-3.2-4.3-5.5-5.9-5.8-4-7.9-7.4-11-17.8-3.3-11-6-13.9-11.2-11.9-2.7 1-3.6.9-5.6-.4-1.9-1.3-2.3-2.2-1.8-4.5.7-3.4-1.1-4.7-4.3-3C90.6 8.3 88 6 88 2.4 88 .1 87.7 0 82.2 0c-5.4 0-6 .2-7.2 2.7zm5.3 4.9c-.9 2.3-3.3 1.6-3.3-.9 0-1.3.3-2.7.7-3.1 1.1-1 3.3 2.3 2.6 4zM111.5 20c.3.5.2 1-.4 1-.5 0-1.3-.5-1.6-1-.3-.6-.2-1 .4-1 .5 0 1.3.4 1.6 1zM106 .7c-2.4.9-5 3.5-5 5.1 0 2 3 4.1 5.8 4.2 3.1 0 6 1.6 9.8 5.2 2.4 2.2 3.9 2.9 6.3 2.6l3.2-.3-5.1-7.7c-2.8-4.3-5.4-7.9-5.8-8.1-1.4-.9-7.8-1.5-9.2-1zm41 7.5c1.5 1.7 2.2 2 3.2 1 .9-.9.8-1.2-.8-1.2-1.1 0-2.5-.4-3.2-1-.7-.5-.3 0 .8 1.2zm80.2 1.4c-3.4 2.4-2.7 3.2 3.1 3.1 2.8 0 7.3.4 10 1 2.6.6 4.7.7 4.7.3 0-.5-2-2-4.4-3.4-5-2.9-10.1-3.3-13.4-1zm-47.7 3.2c1.6 3.3 1.7 3.3 3.6 1.6 2.4-2.2 2.4-2.3-.1-1.7-1.3.4-2.6-.1-3.6-1.3-1.2-1.5-1.2-1.2.1 1.4zm96.2-1c-2.4 2.6-2.2 3 2.1 4.1 5.5 1.6 9.3 1.3 10.9-.7.8-.9 1.2-1.1.8-.5-1.1 2.2.4 1.4 1.6-.8.8-1.5.8-1.9 0-1.5-.6.4-2.1 0-3.3-.8-3.1-2.2-10.1-2.1-12.1.2zm-14.2 2.3c-2.2.4-6.2.8-9 .9-4.6.1-4.9.2-3.1 1.5 2.7 2.1 8.6 1.9 14-.5 6.9-2.9 6.2-3.6-1.9-1.9z"/><path d="M224 17.9c-1.9 1.1-4.5 2.4-5.7 3-5.4 2.5-1.5 4.1 9.8 4.1 6.4 0 8 .4 10.9 2.5 1.9 1.4 4.1 2.5 4.9 2.5.9 0 2.5.7 3.5 1.5 6 4.5 19.6-1.9 19.6-9.1 0-2.7-.3-2.8-3.2-1.3-1.1.6-6.1 1.1-11 1-7-.1-9.6-.6-11.7-2-2.2-1.5-10.2-4.1-12.8-4.1-.4 0-2.4.9-4.3 1.9zm-100.4 2c-.4.5.3 2.8 1.5 5 2.3 4.4 3.9 6 3.9 3.9 0-.7.8-.1 1.8 1.4.9 1.6 2.2 2.8 2.9 2.8 2.1 0 1.5-2.9-1.2-5.2-1.4-1.2-2.5-3-2.5-4s-.5-1.8-1.2-1.8c-.6 0-1.9-.7-2.9-1.6-1-.9-1.9-1.1-2.3-.5zm61.4 4.2c0 .4-1 .9-2.2 1.1-1.7.2-2.3 1-2.4 3-.1 3.8 3.5 4.4 11.8 1.8 6.5-2 9.5-4.1 8.4-5.8-.7-1.2-15.6-1.2-15.6-.1zM287.5 26c-.3.5 1.5 2 4 3.4 4.6 2.7 5.8 4.6 2.9 4.6-1.4 0-1.4.2 0 2.2.9 1.2 1.6 3.2 1.6 4.5 0 3.5 1.9 3.8 5.1.7 2.6-2.5 2.8-3 1.5-4.9-4.1-6.3-13.6-12.9-15.1-10.5zm-142.4 2.3c0 1.5-.8 3-1.7 3.4-.8.3-1.3 1.2-1 1.9.3.8 0 1.4-.6 1.4-.7 0-.5.7.4 1.7s2.7 4 4.1 6.8c1.4 2.7 3.4 5.9 4.6 6.9 1.2 1.1 2.1 2.5 2.1 3.3 0 1 .6 1.2 2.3.7 1.2-.4 4-.8 6.2-1 3-.1 4.1-.6 4.4-2 .2-1.1.7-2.2 1.2-2.5.5-.3-.7-1.6-2.7-3-2.1-1.3-5.6-5.1-7.8-8.3-2.3-3.3-5.6-6.7-7.3-7.5-1.8-.9-3.4-2.3-3.6-3.1-.3-.8-.5-.2-.6 1.3z"/><path d="M225.8 27.7c-2 .5-2.4 2.8-.6 3.9.7.5.2 1.5-1.8 3-2.8 2.3-2.8 2.4-.9 3.8 1.1.8 3.9 1.7 6.3 2.1 3.3.5 4.7 1.3 6.1 3.6 2.4 4 7.7 7.7 11.8 8.5 3.8.7 11.8-1.8 12.6-4 .4-1.1 1.7-1.1 6.9-.1 8.5 1.7 9.6 2.2 11.5 5.9 3.5 7 6.9 7.8 11.5 2.8 1.3-1.4 1.7-2.2 1.1-1.8-2.1 1.2-1.5-1.2.9-3.4 2.1-1.9 2.1-2 .2-2.2-1 0-2.5-.1-3.2-.1-.6.1-2.2-1.2-3.5-2.7-1.2-1.6-2.9-3.7-3.7-4.7-1.9-2.3-6.3-4.3-9.6-4.3-1.3 0-4.9 1.3-7.8 2.9-7.1 3.8-15.3 4.8-19.8 2.5-4.2-2.1-7.9-6.4-7.2-8.6.5-1.6-3.8-6.8-5.6-6.8-.4 0-1.4-.2-2.2-.4-.7-.2-2.1-.2-3 .1zm45.8 2.5c-1.9 2.7-1.6 3.1 1.6 1.9 1.3-.5 3.7-.7 5.4-.4 2.9.6 2.9.6 1-1.6-2.5-2.7-6.1-2.7-8 .1zM64 33c-.6 1.1-.8 2-.6 2 .3 0 1-.9 1.6-2 .6-1.1.8-2 .6-2-.3 0-1 .9-1.6 2zm99.3-.5c-1.1 3.1.5 9.7 3.1 12.4 1.4 1.5 2.6 3.2 2.6 3.8 0 1.1 2.2 2.3 4.1 2.3 1.6 0 1-4.1-1-6.8-1-1.5-3-5.1-4.5-8-2.8-5.6-3.3-6-4.3-3.7zm39 1.2c-1.3.2-2.3.9-2.3 1.4 0 .5-.9.9-2.1.9-1.2 0-3.7.7-5.5 1.6-2.5 1.2-4.1 1.4-5.7.7-1.5-.6-2.9-.6-4.4.2l-2.1 1.1 2.9 6.9c1.7 3.8 3.4 7.4 4 8.1.9 1.1 7.1 1 9-.1.4-.3 1.8-.1 3.1.4 3.7 1.4 10.1 0 10.4-2.4.5-2.9-.5-5.5-2.2-5.5-.8 0-1.4-.4-1.4-1 0-.5-1.9-.9-4.2-.9-2.4.1-5.4-.3-6.6-.8-2.3-.9-2.3-1 1.8-3.7 4.3-2.8 7.6-3.1 13.8-1.1 1.7.6 2.2.3 2.2-.9 0-1.6-5.6-5.7-7.5-5.5-.5.1-2 .4-3.2.6zM224 44.9c0 3-2.7 4.7-5.2 3.2-2.8-1.7-3.2-.9-1.4 3.4.9 2 1.5 4.1 1.3 4.7-.1.5.5 1.3 1.3 1.7l4.8 2.4c4.2 2.1 5.6 2.1 7.3.1.9-1 2-1.3 3.8-.8 7.2 1.9 9.8 2.1 9.8.6 0-.7-1.5-2.1-3.4-3-2.4-1.2-3.3-2.2-3.1-3.6.2-1.6-.7-2.6-3.5-4-2.1-1-4.5-2.9-5.4-4.2-1.9-3-6.3-3.3-6.3-.5zm-79.2 4.8c-4 1-.5 3.4 3.5 2.5 1.4-.4 1.5-.7.6-1.8-.6-.8-1.4-1.3-1.8-1.3-.3.1-1.4.3-2.3.6zM137 52c0 .5.5 1 1 1 .6 0 1-.5 1-1 0-.6-.4-1-1-1-.5 0-1 .4-1 1zm36.6.8c1.6 1.4 6.4 3.2 6.4 2.4 0-1.6-2.5-3.2-4.9-3.2-1.4 0-2.1.4-1.5.8zm77.5 4.9c-.9 1.6-1.2 1.6-2.1.3-.8-1.2-1-1.1-1 .7 0 2.5 1 2.9 2.7 1.2.6-.6 1.9-.9 2.9-.7 1.6.3 1.3.7-1.3 2.3-3 1.8-3.1 2-1.6 3.7.9 1 4.5 2.7 7.9 3.7 4.2 1.3 8.5 3.6 12.6 6.8 3.5 2.7 8.9 6 12.1 7.2 3.1 1.3 6 2.7 6.3 3.2 1 1.7 3.2.9 4.8-1.6.9-1.4 1.2-2.4.5-2.3-.6.2-1.6-.5-2.2-1.4-.9-1.4-.9-2.3.1-3.9.7-1.1 1.2-2.2 1-2.3-1.2-1-7.7-2.6-10.4-2.6-1.8 0-3.6-.5-3.9-1-.3-.6-1.5-1-2.6-1-1.3 0-1.9-.7-1.9-2.3 0-4.4-7.7-9.7-14.1-9.7-1.6 0-2.9-.5-2.9-1 0-1.7-5.8-1.1-6.9.7zM271 69.5c2.4 1.3 2.4 1.4.4 1.5-1.2 0-2.7-.7-3.4-1.5-1.6-1.9-.3-1.9 3 0zm-145.5-5c-.5.2-2.3.6-3.9 1l-2.9.6 2.2 2c1.4 1.3 2.8 1.8 4.5 1.3 3.2-.8 14.1 2.4 16.2 4.7.9 1.1 2.3 1.9 3 1.9.7 0 1.5 1.3 1.9 2.9.3 1.6 1.6 3.8 2.8 4.9 2.6 2.3 6.7 3.8 6.7 2.4 0-.6 1.8-1.3 4-1.7 4.8-.8 5.1-1.2 4.3-5.8-.5-3.6-.6-3.6-3.3-2.2-3.8 2-12.5.9-16.9-2.1l-3.4-2.3 3.9-.7c2.2-.3 4.6-1 5.4-1.5 1.7-1 2-.9-7.2-1.5-3.2-.2-7.3-1.2-9.4-2.4-3.7-1.9-5.6-2.3-7.9-1.5zm-11.6 5.4c-1.3 1-3.3 2-4.3 2.2-2.8.6-2.5 2.2.4 2.4 4 .4 7.9-2.2 8-5.3 0-1.7-1.3-1.5-4.1.7zm68.4-.3c-2.3 1-1.4 2.4 2.7 4 2.2.9 5.4 3.4 7.1 5.6 4 4.9 6.1 3.8 3.3-1.8-2.8-5.5-9.3-9.4-13.1-7.8zm114.5 5.1c-1 .2-1.8 1.1-1.8 1.9 0 2.1 1.8 1.7 3-.6.6-1.1.9-1.9.8-1.9-.2.1-1.1.3-2 .6zM114 77.1c0 .5.5.7 1 .4.6-.3 1-.8 1-1.1 0-.2-.4-.4-1-.4-.5 0-1 .5-1 1.1zm6.1 0c-1.3.5-3.5 2.1-4.9 3.4-2.4 2.4-2.4 2.5-.4 2.5 1.9 0 2.1.4 1.6 3-.6 2.8-.4 3 2.1 3 1.5 0 4.4-.5 6.5-1.1 5.5-1.7 8.6.3 14.2 8.7 6.1 9.3 9.6 11.9 16.3 11.8 5.7-.1 12.5-3.7 12.5-6.6 0-2.2-1.9-3.3-3.3-1.9-1.8 1.8-8.7 1.3-13.4-1-2.4-1.1-6.6-4.7-9.4-7.9-6.8-7.8-11.5-11-16.4-11-3.7 0-3.8 0-2-2 2-2.3.8-2.6-3.4-.9zM81 81.2c0 4.9.6 4.7 1.4-.5.3-2.2.2-3.7-.4-3.7-.6 0-1 1.9-1 4.2zm163.3-2.8c-1.3 1.5.8 5.6 4.5 8.9 2 1.8 2.1 1.8 3.2-.3 1.7-3.2.8-6.2-2.5-8.1-3.7-2.1-3.7-2.1-5.2-.5zm10.7-.6c0 1 4.8 3.7 5.5 3.1.2-.3-.9-1.3-2.5-2.3-1.7-.9-3-1.3-3-.8z"/><path d="M89.6 79.5c-.3.8-.1 1.5.4 1.5.6 0 1 1.6 1 3.5 0 2.8.4 3.5 2 3.5 1.1 0 3.7 1.6 5.9 3.5 3.8 3.5 5.3 6.2 6.6 11.9.3 1.6 2.4 4.7 4.5 6.9l3.9 3.9 6.4-.7c5.4-.6 7-.4 10.3 1.4l3.9 2-11.1.1c-12.8 0-14.5-.8-19.1-8.8-2.7-4.8-10.1-13.2-11.6-13.2-.4 0 .3 1.5 1.7 3.3 3.2 4.2 3.4 5.7.4 3-5.1-4.5-9.1-6.5-15.7-7.7l-7-1.3-.5 2.6c-.6 2.6.4 10.2 2.1 17.1.5 1.9.8 4.1.7 4.7-.1.7-.2 3.2-.3 5.5-.1 3.9-.2 4-2 2.4-1.4-1.2-2-3.6-2.4-9.4-.3-4.2-1.3-9.7-2.3-12.2l-1.8-4.4-.8 2.9c-.4 1.7-.5 7.4-.2 12.7.6 8.1 1 9.7 2.5 10.1 2.4.6 1.4 4.3-1.8 6.4-2.1 1.4-2.6 1.4-3.4.2-.5-.8-.7-1.9-.4-2.6.2-.8-1.1-.6-3.8.6-4.4 1.8-7.7 1.7-7.7-.2 0-.7-1-1.8-2.1-2.5-2.2-1.4-2.3-4.4-.3-9.7.6-1.8.5-1.8-.9-.5C44 118.7 35 137.7 34 143c-.5 2.8-1.3 5.7-1.7 6.3-2.5 3.9-1.8 20.7.8 20.7 1.9 0 .8 4.1-2.1 8.2-3.5 5-4.3 11-1.7 13.5 1.2 1.2 1.3 2 .5 3.3-1.6 2.6 3.3 8.7 7.6 9.6 2.9.5 3.5 1.2 4.9 5.8.9 2.9 1.9 9 2.3 13.7.3 5.2 1.3 9.7 2.4 11.9 1 1.9 2.1 4.8 2.5 6.5.4 1.6 2.6 4.9 5.1 7.2 3.8 3.7 4.2 4.6 3.5 6.6-.5 1.3-2.3 2.9-3.9 3.6-3.6 1.5-5.2 4.8-5.2 10.6 0 3.2.6 5 2.1 6.4 1.2 1.1 2.3 3.5 2.4 5.3.4 4.5 3.9 7.1 8.3 6.3 1.8-.3 3.9-.2 4.5.3 2.1 1.6 6.5 2.2 9.1 1.2l2.6-.9-.3 7.3c-.2 9.1.6 10.8 9.2 17.8 6.9 5.7 10.8 8.1 15.2 9.1 2 .5 3.5 2.5 6.7 8.9 5.4 10.8 10.7 18.9 17.6 26.5 3.3 3.5 5.6 7.1 5.7 8.5 0 1.2 1.7 9 3.7 17.3l3.7 15 27.8.3 27.8.2 4.5-3.2c2.4-1.7 4.4-3.4 4.4-3.7 0-.4 3.7-4.5 8.3-9.2 16-16.6 19.9-21 19.3-21.6-.3-.3-1.4.1-2.3 1-2.2 2-16.6 8.7-18.6 8.7-.8 0-1.7-.9-2-2.1-.5-1.9-1.1-2-5.4-1.5-10.7 1.4-15.6.4-23.8-4.8-5.5-3.5-9.8-5.1-16.4-6.1-2.4-.4-7-2.3-10.3-4.3-5.6-3.3-5.9-3.6-5.2-6.6.8-3.8 2-4.7 10.4-8 4.7-1.8 9.2-2.7 16.4-3.1 8.5-.5 10.6-.9 14.3-3.3 5.2-3.3 6-6.8 1.3-5.9-4 .9-24.3-1-30.6-2.8-4.9-1.4-10.4-5.3-10.4-7.5 0-1.3 4.3-1.3 11.3.1 4.5.9 7.4.8 15.1-.5 8.6-1.4 10.3-1.4 17.3 0 4.3.8 9.4 2.3 11.3 3.4 5.4 2.8 10.4 3.5 12 1.5 1.1-1.3.9-1.9-1.1-4.1-3.3-3.6-4.8-4.2-13.3-5.8-4.1-.8-8.6-2.2-9.9-3.1-1.8-1.1-5.4-1.6-13.3-1.8-9.6-.2-11.4-.5-14.9-2.7l-4-2.5 8-.5 8-.5.5-3.2c.6-3.6 3.1-5.8 11-9.5 6.2-2.8 9.6-7.2 7-8.8-3.1-2-9.7-1.1-12.9 1.6-1.7 1.4-3.1 2.2-3.1 1.7 0-1.1-10.8-4.3-14.6-4.3-2.7 0-6-1.5-8.1-3.6-1.8-1.7-1.6-7.2.3-12.5.8-2.4 2.4-10.9 3.6-18.9 1.6-11.7 1.9-17.1 1.3-28-1.2-25.2-2.5-27.9-15-30.4-10.6-2.1-30.7-2.9-40.3-1.6-10.9 1.5-11.2 1.2-11.2-9.4 0-6.8.4-8.9 2.7-13.4l2.7-5.4 5.4.4c3.7.3 5.5.1 5.9-.7.2-.7 1.7-1.5 3.4-1.9 1.7-.3 2.9-1.2 2.9-2.1 0-.9.9-1.5 2.3-1.6 1.2 0 1.6-.3.9-.6-1.4-.5 3.4-7.8 8.3-12.4 4.8-4.6 17.4-12 23.9-14.1 9.4-3.1 17.7-7.2 22.3-11.1 4.9-4.1 7.1-4 9.8.5 1.2 2.1 4 4.1 9.3 6.5 4.1 1.9 12 6 17.6 9 5.5 3.1 11.9 6.5 14.1 7.6 12.9 6.7 29.2 19.7 35.7 28.5 2.8 3.7 4 6.5 4.3 9.5.2 2.3 1.3 6.4 2.5 9.2 1.2 2.7 2.6 7.2 3 10l.8 5 .1-4.2c0-2.3.8-4.9 1.7-5.8 1.1-1.1 1.4-2.5 1-4.7-.5-2.5-.4-2.8.8-1.9.8.6 1.9 2.5 2.6 4.1 2.3 5.4 5.5 3 4.4-3.3-.5-3.1-.5-3.1 1.1-1.2 1 1.1 2.5 3.7 3.5 5.8 1.8 3.9 2.9 3.4 3.1-1.6.1-1.2.5-.4 1 1.8.5 2.1 1.8 4.8 2.7 6 1 1.1 2.4 3.3 3.1 4.9 1.5 3.6 2.2 2.9 5.5-5.3 3.1-7.7 3.3-11 .7-14.3-3-3.7-1.2-5.7 2.7-2.9 3.9 2.7 4.2 2.7 4.2-1 0-1.7.4-2.8 1-2.4 1.5 1 1.2-1.1-.4-2.4-1.1-1-2.3-.8-5.5.8-8.1 4.2-15.1 1.8-13.5-4.5.6-2.3.5-2.5-1.2-1.6-3 1.6-14.4 2.6-14.4 1.3 0-.6 1.2-1.1 2.8-1.1 1.9 0 4.4-1.5 8.2-5 5.6-5.2 7.7-6.2 6.6-3.4-.5 1.4-.1 1.6 2.6 1 6.6-1.3 9.7-7.2 7.4-14.4-1.1-3.6-6.5-10.2-8.4-10.2-.6 0-1.4 1.6-1.8 3.6l-.7 3.7-1.3-3.4c-2.8-6.8-4.9-10.9-5.9-11.2-.5-.2-2.9-.2-5.2.1-4 .4-4.1.5-4.8 4.9-.9 6.3-1.4 7.3-3.6 7.3-1 0-1.9.4-1.9 1 0 .5-2 2.1-4.5 3.6-4.9 2.8-7.3 2.7-11.4-.4l-2.3-1.9 4.3-.1c7.8-.3 11.4-1 11.1-2.1-.1-.6.5-1.1 1.3-1.1 2.4 0 3.1-5.1.9-6.7-1.6-1.2-2-1.1-3.1.3-2.2 3.1-7.7 6.4-10.5 6.4-1.6 0-4-.7-5.3-1.6-2-1.3-3.9-1.5-9.3-1-6.5.6-6.6.6-3.9-.9 1.5-.9 3.2-2.7 3.7-4.1.8-1.9 1.7-2.4 4.5-2.4 2 0 3.4.4 3.1.9-.3.5.8 1.1 2.5 1.5 3.9.7 8.4-1.5 10.3-5.2 2.1-4 4.5-5.9 5.5-4.3 1 1.5 6.1-4.1 6.1-6.7 0-.9 1.5-3.1 3.3-5 3-3.3 3.1-3.4.7-2.6-3.9 1.4-11.2.9-14.9-1-1.8-1-6.7-2-10.7-2.3-6.8-.5-7.7-.4-9.9 1.7-3 2.8-3.2 4-.6 4 3.3 0 3.3 1.7-.3 5.4-2.9 3.1-3.8 3.5-6.5 3-2-.4-3.1-.3-3.1.5 0 .6-1.5 2-3.2 3.1-4.3 2.6-18.3 2.9-21.4.5-1.8-1.5-1.7-1.6 1.3-1 2.4.5 4 .1 6.2-1.4 1.6-1.2 4.3-2.1 6.1-2.1 1.7 0 5.1-.9 7.4-2 4.1-1.8 4.4-2.2 6-8.7l1.8-6.8-3.3-2.8c-3.8-3.1-6.6-3.3-15.1-1.1-7.5 1.9-10.4 1.3-15.8-3.3-3.4-2.9-4.4-3.3-5.1-2.2-.5.8-.7 2.5-.4 3.8.3 1.3.9 3.6 1.2 5.2 1.5 7.7 11.6 9.2 18.8 2.9 1.1-1 3.9-2.1 6.1-2.5 3.5-.5 4.5-.3 7 1.9 1.8 1.6 2.5 2.9 1.9 3.3-.5.5-1.5 1.7-2.1 2.8-.6 1.1-2.6 2.2-4.5 2.6-1.9.3-4.5 1.1-5.9 1.9-6.7 3.7-16.5 3-21.9-1.6-2.8-2.3-3.6-4.2-5.5-12.6-.3-1.5-2.4-4.8-4.6-7.3-2.2-2.5-4-5-4-5.6 0-.5-.7-.9-1.5-.9-1.7 0-2 2.1-.6 3.6.5.5 1.2 2 1.6 3.4.7 2.1.6 2.3-.7 1.2-1.3-1-1.6-.4-2.1 4.7-.5 4.2-1.6 7.4-3.7 10.8-2.5 4-3.9 5-8.3 6.5-12.2 4-23.6.8-30.3-8.4-4.2-6-7.7-7.8-13.2-7.1-3.2.4-4.2 1-4.2 2.4 0 2.3 3.7 4.9 7 4.9 1.4 0 4.3.9 6.6 1.9 3.2 1.4 4.2 2.6 4.7 5 .4 2 2 4 4.8 6.1 3.2 2.3 3.7 3 2.2 3-2 0-8.1-3.7-11.1-6.6-2.5-2.6-6.4-3.6-11-2.9-3.8.6-4.5.3-7-2.3-1.5-1.6-3.6-4.4-4.7-6.3-1.1-1.8-4.5-5.2-7.5-7.6-10-7.9-11-9-11-11.7 0-2.8-1.4-3.5-2.4-1.1zm163.3 31.3c-4.7 1.7-8.3 4.1-7.5 5 .3.2 0 1-.7 1.7s-1.9 2.2-2.7 3.4c-.8 1.1-2 2.1-2.6 2.1-.7 0-1.4.5-1.6 1-.5 1.7-8 3.9-11 3.3-1.5-.3-3.2-1.1-3.7-1.7-.8-.9.2-1.2 4-1.3 8.1-.1 10.4-1.6 12.4-7.9.9-3 2.4-5.8 3.3-6.4 1-.5 4.6-.9 8.2-.9l6.5.1-4.6 1.6zM43.8 124.5c-.6 1.4-1.3 2.3-1.5 2.1-.5-.5 1.5-4.6 2.2-4.6.3 0-.1 1.1-.7 2.5zm237.4 19.3c-2.2 4.3-8.3 8.2-12.8 8.2-2.1 0-4-1-6.3-3.4l-3.2-3.3 5.2-.5c4.4-.5 5.7-1.1 8-3.9 2.7-3.3 2.8-3.3 4.2-1.5 1.4 1.9 3.7 1.5 3.7-.8 0-.6.6-1.8 1.3-2.5 2.1-2.1 2.1 3.5-.1 7.7zm10.7-.7c.1 4.2-.3 5-4.3 8.7-4.6 4.3-11.2 6.8-14.7 5.7-2-.7-2-.7.2-2.8 1.3-1.2 4.5-3.2 7.1-4.4 6.8-3.2 9.8-6.7 9.9-11.7.1-5.8 1.7-1.7 1.8 4.5zm-211.8.5c4.4 3.9 5.7 4.5 8.5 4.2 3.9-.5 4.3.4 1.2 2.6-2.6 1.8-9 2.1-12 .5-3.2-1.7-6.6-11.9-3.8-11.9.5 0 3.3 2.1 6.1 4.6zm-7.6 13.2c1.1.7 1.4 1.2.7 1.2-2.4 0-7-3.3-8.2-5.9-1.1-2.5-1.1-2.5 2.2.5 1.8 1.7 4.2 3.6 5.3 4.2zm-26-2.1c2.8 4.3 3.2 6.5 1 5.6-1.8-.6-4.5-5.4-4.5-7.8 0-2.3.7-1.9 3.5 2.2zm10.5 3.7c0 .5-.9.1-2-.9s-2-2.5-2-3.4c0-1.2.6-.9 2 .9 1.1 1.4 2 2.9 2 3.4zm64.8 39.2c-.9.8-11.9 3.6-12.4 3.1-.9-.9 6.3-3.7 9.5-3.7 1.9 0 3.2.3 2.9.6zm4.3 9.1c1.2 1.5 1.2 1.6-.3 1.1-1-.4-1.9-.1-2.2.8-.6 1.6-1.5 1.7-3.6.4-1.3-.9-1.2-1.2.4-2.5 2.6-1.9 4-1.9 5.7.2zm-11.5 11.9c2.7 1.1 6 1.5 11.6 1.2 6.7-.3 7.5-.1 6.3 1.1-2.2 2.2-11.8 2.6-16.9.7-2.4-.9-4.7-2.4-5-3.1-.7-1.8-.7-1.8 4 .1zm-10.8 7.3c6.5 4.8 14.8 7.5 20.5 6.7 2.3-.4 7.7-.9 11.9-1.2l7.8-.6 1.1 2.8c.9 2.5.6 4-2 10.4-1.7 4.1-3.1 8-3.1 8.6 0 .6-1.7 4.2-3.8 8-3.8 6.9-6.4 15.4-5.3 17.2.3.6 2.3 1 4.4 1 4.8 0 5.3.5 3.3 3.4-1.1 1.5-1.6 4.4-1.6 9 0 7.6-.3 7.8-8.2 9.1-4.7.7-5 0-5.4-13.3-.2-8-.7-10.7-1.9-11.6-.8-.6-1.5-1.5-1.5-1.9 0-.4-1.3-2-3-3.5-1.6-1.5-3-3.3-3-3.9 0-.7-.7-1.4-1.5-1.7-.8-.4-1.5-1-1.5-1.5 0-1-2.2-3.9-5.7-7.6-1.3-1.3-2.3-2.8-2.3-3.3 0-.6-.4-1-1-1-.5 0-1.6-1.3-2.5-3-.8-1.6-2.4-3.7-3.4-4.7-4.6-4.5-8.1-10.7-8.1-14.4 0-6.1.7-6.9 5.9-6.9 3.9 0 5.6.7 9.9 3.9zm45.7 38c-1.3 5.2-4.5 6.9-4.5 2.4 0-2.9 2.7-6.6 4.2-5.7.5.4.7 1.8.3 3.3zM133 320.5c0 .8-.4 1.5-1 1.5-.5 0-1-.7-1-1.5s.5-1.5 1-1.5c.6 0 1 .7 1 1.5zm91.2-238.3c.3.7 1.8 1.5 3.4 1.9 1.6.3 3.9 1.1 5.2 1.8 1.9 1 2.2.9 2.2-.8 0-2.6-2.8-4.1-7.5-4.1-2.5 0-3.5.4-3.3 1.2z"/><path d="M112 99.1c0 2.3 6 7.9 8.4 7.9 2.1-.1 2.1-.1.1-1.5-1.1-.8-3.5-2.9-5.2-4.7-2.4-2.4-3.3-2.8-3.3-1.7zm103.1 2c-1.3.5-2.1 1.2-1.8 1.5.3.3 1.8-.1 3.4-1 3.1-1.7 2.1-2-1.6-.5zm-16.1 1.3c0 .2.8 1 1.8 1.7 1.5 1.3 1.6 1.2.3-.4s-2.1-2.1-2.1-1.3zm4.8 3.3c.7.3 1.6.2 1.9-.1.4-.3-.2-.6-1.3-.5-1.1 0-1.4.3-.6.6zm70.6 2.7c-.8 2.1-.1 6.9 1.1 7.3 1.4.4 4.5-5.4 3.9-7.2-.8-1.9-4.3-2-5-.1zm39.2 32.1c-1.1.8-2.7 1.5-3.7 1.5-.9 0-2 .7-2.3 1.6-.8 2.1-.8 2.6.3 2 .4-.3 1.5 0 2.3.7 1.4 1.1 2.2 3.2 5.1 14.5.8 3.3 1.4 4.1 2.6 3.6.9-.4 3-.7 4.7-.6 3.7.2 5.7-1.6 4.4-3.8-.8-1.2-1.3-1.3-3-.3-2.6 1.7-3.3 1.6-2.6-.2.4-1-.1-1.5-1.4-1.5-1.9 0-2-.7-2-9.5 0-10-.5-10.9-4.4-8zm-15.6 17l-2.3 2.5h2.4c1.4 0 3.4-.7 4.5-1.5 1.6-1.3 1.7-1.6.4-2.5-2.1-1.4-2.4-1.3-5 1.5zm32.2 11.5c0 1.4.2 1.9.5 1.2.2-.6.2-1.8 0-2.5-.3-.6-.5-.1-.5 1.3zm-10.9 14.8c-2.3 1.5-4.3 3.1-4.3 3.6s.6.3 1.4-.3c1.4-1.2 4.6-.5 4.6 1.1 0 .5-.7 2.3-1.6 3.9-1.4 2.8-1.4 3.2.2 5 3.4 3.8 5.9 1.5 2.9-2.5-2.8-3.7-1.7-5.2 1.5-2.1s3.4 2.9 4.5-3.7c.7-4.3-.8-7.8-3.3-7.7-.9 0-3.6 1.3-5.9 2.7zm-119.8 2.7c-.5.2-2.2.6-3.7.9-2.2.5-2.9 1.5-3.8 4.9-.6 2.3-1.8 6-2.6 8.1-1.5 3.9-1.3 6.6.8 13.4.8 2.6 2.3 4 7.6 6.8 3.7 1.9 9.2 5.1 12.2 7 6.7 4.2 12.6 5.9 16 4.7 3.8-1.3 3-3.5-2-5.1-5.8-1.9-14-5.9-16.5-8.2-1.1-1-2.7-2-3.5-2.4-2.3-1 1.5 0 11.7 2.9 6.9 1.9 10.1 2.3 12.5 1.7l3.2-.8-3.8-2.2c-2-1.2-4.2-2.2-4.7-2.2-2.4 0-6.9-3.2-6.9-4.9 0-3.3 2.6-4.4 9.2-3.9 7.8.5 11.8 2.4 13.9 6.4 1.5 3 2.7 3.2 5.7.9.1-.1-.3-1.4-.9-2.8-2.4-5.4-12.8-10.7-22.9-11.7l-6.5-.6 4.3-1.4c3.4-1 5.2-1.1 9.5-.1 7.3 1.6 11.2 4.3 14.8 10.1 1.7 2.8 3.9 5.4 4.8 6 2.2 1.1 8.6-.3 11-2.4 1-.9 2.3-1.6 3.1-1.6.9 0 1.1-1.2.7-4.7-.5-4.6-2.9-7.7-9.2-11.9-3.5-2.3-14.7-5.3-24-6.4-8.4-.9-27.7-1.3-30-.5zm52.4 9.5c7.5 3.8 9.2 10.9 1.9 7.9-6.3-2.7-15.8-8.4-15.8-9.5 0-2.8 7-2 13.9 1.6zm38.1 1.6c0 1.9.5 3.4 1.1 3.4.6 0 .8-.9.4-2.2-.6-1.6-.4-2 .9-1.5 1.9.8 3.1-.9 1.4-2-2.8-1.7-3.8-1.1-3.8 2.3zm44.2.9c0 1.6.2 2.2.5 1.2.2-.9.2-2.3 0-3-.3-.6-.5.1-.5 1.8zm-55.1 5.6c-.1 2.3.7 4.6 2 6.3 2.8 3.6 3.5 2.6 1.2-1.6-1-1.8-2.1-4.4-2.4-5.8-.6-2.1-.7-2-.8 1.1zm17.4-1.1c.3.5 1.1 1 1.6 1 .6 0 .7-.5.4-1-.3-.6-1.1-1-1.6-1-.6 0-.7.4-.4 1zm19.1 3.6c-1.3 3.4.2 4.5 3.3 2.5 1.2-.8 1.2-1.2.2-2.5-1.7-2-2.7-2-3.5 0z"/><path d="M297.8 210.2c-.2.6-1.3 1.3-2.4 1.4-5.9 1-8.5 1.8-9.5 3-1.7 2-3.6 1.7-8.6-1.1-3.6-2.2-4.4-2.4-4.9-1.1-.3.9-.2 2.8.3 4.3.9 2.6 1.4 2.8 6.4 2.9 3 .1 5.7.2 6 .3.4.1 1.1 5.2 1.5 11.3.9 12.5.9 12.6-.1 15-.6 1.5-.2 1.8 2.9 1.8 2.7 0 3.9-.6 5.2-2.5.9-1.4 1.9-2.4 2.1-2.1.5.5-3.6 8.9-8.2 16.6-1.8 3-3.5 6.8-3.8 8.5-.5 2.8-.3 3 2.4 3.1 2.4.1 2.9-.3 2.9-2.3 0-2.4 2.8-8.8 3.6-8.1.4.5 1.3 7.8 1.3 12.1.1 2 .8 3 2.6 3.7 1.4.5 2.5 1.6 2.5 2.3 0 2.4-3.8 5-7.5 5.2-2 .1-3.9.6-4.3 1-.4.4 1.3.5 3.7.2 3.8-.5 5.2-1.4 10.5-7.1 3.5-3.8 7-6.6 8.1-6.6 2.5-.1 6.4-3.4 9.5-8 1.8-2.6 1.2-2.2-2.6 1.7-3.4 3.7-5.8 5.3-7.5 5.3-1.4 0-3 .5-3.7 1.2-1.7 1.7-5.4-1.8-4.2-4.1.4-.9 1.6-3.6 2.6-6.1 1-2.5 2.8-6.1 4.1-8 2.6-3.9 2.9-5.1 1.1-4.7-.6.1-1.4-.7-1.6-1.8-.2-1.1-1-2.4-1.8-2.8-1.7-1-1.8-3.9-.3-5.4 1.6-1.6.2-3.3-2.6-3.3-1.8 0-2.2-.4-1.8-1.9.3-1.4 1.3-1.9 3.1-1.8 2.7.2 2.7.1 3.6-8.1.8-8.3.1-11.2-2.8-11.2-.6 0-1.7-.9-2.4-2-1.3-2.2-4.8-2.7-5.4-.8zm31.2 11.2c-.6.8-1 2.5-.8 3.6.2 1.7.5 1.4 1.4-1.4 1.2-4 1.2-4.2-.6-2.2z"/><path d="M274.8 224c.6 4.2 2.4 5 2 .9-.2-1.8-.8-3.4-1.4-3.6-.7-.2-.9.8-.6 2.7zm44.5 8.2c-4.1 4.5-4.6 6.5-2.2 8.9 2 2 2.2 2 3.1.5.5-1 .7-2.4.4-3.2-.3-.9.1-2.5.9-3.7 3.1-4.4 1.3-6.3-2.2-2.5zm4.6 20.4c-.5 1.5-.8 2.9-.5 3.1.2.2.8-1 1.4-2.6 1.3-3.8.5-4.1-.9-.5zM198 265.4c0 5.6 1.5 8.3 5.4 9.7 2 .7 3.6 1.9 3.6 2.6 0 .7.7 1 1.5.7 1.8-.7 1.4-6.3-.7-9.2-1.8-2.6-7.4-7.2-8.7-7.2-.6 0-1.1 1.5-1.1 3.4zm85.2 28.1c-2.1 1.9-5.1 3.9-6.5 4.4-2.8 1.1-3.4 3.4-1.7 6.1.8 1.2 1 1 1-.8 0-4.5 5.2-6.4 8.4-3.2.5.5 2.8 1 5 1 2.6 0 5.1.8 7.5 2.6l3.6 2.6-3.1-3c-2-1.8-4.7-3.1-7.5-3.6-2.4-.4-5.2-1.4-6.2-2.4-1.8-1.6-1.7-1.7 1.5-4.4 1.8-1.5 3-2.8 2.6-2.8-.5 0-2.5 1.6-4.6 3.5zm18.9 14.2c.7 1.2 1.5 2 1.8 1.7.3-.2-.3-1.2-1.3-2.2-1.7-1.6-1.8-1.6-.5.5zm2 4.9c0 1.1.3 1.4.6.6.3-.7.2-1.6-.1-1.9-.3-.4-.6.2-.5 1.3zm-.9 4.9c0 1.6.2 2.2.5 1.2.2-.9.2-2.3 0-3-.3-.6-.5.1-.5 1.8zm-4.3 7.4c-1.9 1.6-2.2 2.2-1.1 3.2 1 1.1 1.2.9 1.2-.5 0-1.1.8-2.5 1.8-3.2.9-.7 1.4-1.4 1.1-1.4-.4 0-1.7.9-3 1.9zm4.1 7.6c1.9 1.9 3.6 3.5 3.9 3.5.3 0-1-1.6-2.9-3.5s-3.6-3.5-3.9-3.5c-.3 0 1 1.6 2.9 3.5zm-18.7 0c-.3.9-.3 1.9.1 2.2.7.7 3.6-1.6 3.6-2.8 0-1.5-3-1-3.7.6zm21.8 11.1c0 1.1.3 1.4.6.6.3-.7.2-1.6-.1-1.9-.3-.4-.6.2-.5 1.3zm-7.3 10c-3.2 1.7-3.7 4.9-1 6.3 1.1.6 8 .7 18.3.2l16.4-.8-17.3-.1c-15.2-.2-17.3-.4-17.9-1.9-.4-.9-.2-1.8.4-2 1.2-.4 5-3.2 4.3-3.2-.3 0-1.7.7-3.2 1.5zm37.3 5.8c.2.2 2.6.6 5.3.9 3 .3 4.3.1 3.5-.4-1.3-.8-9.7-1.3-8.8-.5zm17.1 2.1c3.6.8 10.1 2.7 14.5 4.4 4.3 1.7 6.9 2.4 5.9 1.6-2.8-2.1-16.4-6.4-22.1-7-4.4-.4-4.3-.3 1.7 1zm25.8 9c0 .7 6.1 3.7 6.6 3.3.2-.3-1.2-1.2-3.1-2.1-1.9-.9-3.5-1.5-3.5-1.2zm8.8 4.2c.7.3 1.6.2 1.9-.1.4-.3-.2-.6-1.3-.5-1.1 0-1.4.3-.6.6zm5.3.7c.2.2 2 .6 3.9 1 2.5.4 3.1.3 2-.4-1.4-.9-6.9-1.5-5.9-.6z"/></svg>